<?xml version="1.0" encoding="UTF-8" standalone="no"?>
<!-- Created with Inkscape (http://www.inkscape.org/) -->

<svg
   width="48.3965mm"
   height="31.874941mm"
   viewBox="0 0 48.3965 31.874941"
   version="1.1"
   id="svg1"
   xmlns="http://www.w3.org/2000/svg"
   xmlns:svg="http://www.w3.org/2000/svg">
  <defs
     id="defs1" />
  <g
     id="layer1"
     transform="translate(-80.9625,-134.14373)">
    <path
       id="path8700-2-4-7-0"
       style="font-size:20.6302px;line-height:1.25;font-family:Roboto;-inkscape-font-specification:Roboto;letter-spacing:0px;word-spacing:0px;baseline-shift:baseline;fill:#008000;stroke-width:1.36461"
       d="m 94.1852,134.14373 c -1.9305,0 -3.7045,0.33334 -5.3231,1.00044 -1.6178,0.66733 -3.0162,1.64666 -4.1945,2.93835 -1.1638,1.27759 -2.0722,2.85404 -2.7254,4.72771 -0.6528,1.87344 -0.9797,4.01722 -0.9797,6.43032 v 1.72486 c 0,2.41329 0.3192,4.55644 0.9579,6.43052 0.6533,1.8595 1.5768,3.42835 2.769,4.7057 1.1923,1.27733 2.6259,2.24948 4.3009,2.9166 1.6748,0.66729 3.5485,1.00044 5.6211,1.00044 1.6749,0 3.18,-0.14167 4.5143,-0.42612 1.3484,-0.2695 2.5337,-0.61744 3.5554,-1.04294 0.9672,-0.40268 1.7926,-0.8379 2.48,-1.3042 0.6871,0.4663 1.5122,0.90088 2.4792,1.3042 1.0223,0.4255 2.2084,0.77344 3.5569,1.04294 1.3344,0.28407 2.8384,0.42612 4.5134,0.42612 2.0725,0 3.9461,-0.33315 5.6211,-1.00044 1.6749,-0.66712 3.1089,-1.63927 4.3013,-2.9166 1.1931,-1.27735 2.1153,-2.8462 2.7684,-4.7057 0.6388,-1.87408 0.9576,-4.01723 0.9576,-6.43052 v -1.72486 c 0,-2.4131 -0.3256,-4.55688 -0.9787,-6.43032 -0.6528,-1.87367 -1.5611,-3.45012 -2.7255,-4.72771 -1.1778,-1.29169 -2.5772,-2.27102 -4.1955,-2.93835 -1.6181,-0.6671 -3.3922,-1.00044 -5.3226,-1.00044 -2.1437,0 -3.9821,0.26233 -5.5151,0.78739 -1.5332,0.5111 -2.8097,1.23594 -3.8321,2.17274 -0.6365,0.58278 -1.1795,1.23447 -1.6284,1.95526 -0.4492,-0.72079 -0.9916,-1.37248 -1.6277,-1.95526 -1.0222,-0.9368 -2.3001,-1.66164 -3.8331,-2.17274 -1.5331,-0.52506 -3.3713,-0.78739 -5.5151,-0.78739 z m 0.2556,5.74864 c 0.8658,0 1.6047,0.10789 2.2152,0.32 0.6248,0.21309 1.1427,0.52468 1.5543,0.93621 0.4261,0.41155 0.7517,0.91549 0.9788,1.51179 0.2411,0.59608 0.4189,1.27842 0.533,2.04507 h 3.6812 3.5149 3.6822 c 0.1141,-0.76665 0.2913,-1.44899 0.5324,-2.04507 0.2272,-0.5963 0.5537,-1.10024 0.9798,-1.51179 0.4118,-0.41153 0.9297,-0.72312 1.5542,-0.93621 0.6103,-0.21262 1.3484,-0.32 2.2143,-0.32 0.8943,0 1.711,0.19233 2.4491,0.57556 0.7237,0.38369 1.3411,0.96538 1.8523,1.74559 0.5111,0.76667 0.9075,1.73202 1.1918,2.89588 0.2695,1.16384 0.4055,2.5272 0.4055,4.08866 v 1.76735 c 0,3.09455 -0.5259,5.42161 -1.5767,6.98307 -1.0642,1.54749 -2.7326,2.32156 -5.0037,2.32156 -0.5964,0 -1.1287,-0.034 -1.5967,-0.10567 -0.4687,-0.0846 -0.8798,-0.19024 -1.2345,-0.31875 -0.3551,-0.12895 -0.6538,-0.27057 -0.8948,-0.42615 -0.2554,-0.15636 -0.4609,-0.3048 -0.6175,-0.44684 v -4.81243 h 5.1958 v -5.13081 h -9.1109 -3.5582 -9.1124 v 5.13081 h 5.1964 v 4.81243 c -0.1564,0.14167 -0.3625,0.29086 -0.6181,0.44684 -0.2417,0.15638 -0.5387,0.29805 -0.8938,0.42615 -0.3551,0.12893 -0.7667,0.23442 -1.2355,0.31875 -0.4679,0.0696 -1.0003,0.10567 -1.5965,0.10567 -2.2712,0 -3.9396,-0.77407 -5.0044,-2.32156 -1.0503,-1.56146 -1.575,-3.88852 -1.575,-6.98307 v -1.76735 c 0,-1.56146 0.1354,-2.92482 0.4045,-4.08866 0.2834,-1.16386 0.6816,-2.12921 1.1923,-2.89588 0.5111,-0.78021 1.1293,-1.3619 1.8527,-1.74559 0.7384,-0.38299 1.5538,-0.57556 2.448,-0.57556 z" />
  </g>
</svg>
