<?xml version="1.0" encoding="UTF-8" standalone="no"?>
<!-- Created with Inkscape (http://www.inkscape.org/) -->

<svg
   width="114.62809mm"
   height="23.416019mm"
   viewBox="0 0 114.62809 23.416019"
   version="1.1"
   id="svg1"
   xml:space="preserve"
   xmlns="http://www.w3.org/2000/svg"
   xmlns:svg="http://www.w3.org/2000/svg"><defs
     id="defs1" /><g
     id="layer1"
     transform="translate(-65.55182,-139.60611)"><path
       id="rect1"
       style="color:#000000;fill:#000000;stroke-width:0.546379;stroke-linecap:round;stroke-linejoin:round;-inkscape-stroke:none"
       d="m 66.480467,144.41725 a 0.92795386,0.92795386 0 0 0 -0.928647,0.92837 v 15.06502 a 0.92795386,0.92795386 0 0 0 0.928647,0.92724 h 3.524848 c -0.212469,-0.49246 -0.518468,-1.1075 -0.917353,-1.8556 h -1.680261 v -3.03017 c -0.411547,-0.74127 -0.758925,-1.38014 -0.982858,-1.82963 -0.344917,-0.69234 -0.506815,-1.05474 -0.506816,-1.38634 1e-6,-0.045 0.01073,-0.11584 0.06183,-0.18239 0.0511,-0.0665 0.134748,-0.10351 0.190869,-0.11209 0.112239,-0.0172 0.147175,0.0111 0.178444,0.0246 0.0025,0.001 0.003,0.002 0.0054,0.003 l -0.08019,-0.22729 h 0.630768 c 0.06978,0 0.06027,0.007 0.106728,-0.0638 0.09933,-0.1516 0.238677,-0.25982 0.395854,-0.34531 v -6.05978 h 9.190468 c 0.441928,-0.6372 0.911918,-1.26179 1.397346,-1.85588 z m 15.273118,0.0263 c -0.213125,0.24618 -0.421424,0.49781 -0.619192,0.76121 -0.231391,0.30818 -0.478294,0.67647 -0.730155,1.06841 h 0.212609 v 13.20915 h -5.766984 c -0.01997,0.0694 -0.03362,0.11355 -0.05421,0.1855 -0.208303,0.72777 -0.361767,1.25527 -0.497499,1.6701 h 7.247058 a 0.92795386,0.92795386 0 0 0 0.927518,-0.92724 v -15.06504 a 0.92795386,0.92795386 0 0 0 -0.719143,-0.90211 z" /><path
       style="fill:#008000;stroke-width:0.219179"
       d="m 71.111401,162.89805 c -0.272355,-0.11303 -0.302224,-0.16176 -0.527,-0.85988 -0.29434,-0.91417 -0.935312,-2.20534 -2.203755,-4.43924 -1.627443,-2.86616 -2.173258,-3.96174 -2.173258,-4.36227 0,-0.0452 0.158125,0.0731 0.351388,0.26274 0.378938,0.3719 0.413144,0.35084 0.237723,-0.14636 l -0.113666,-0.32216 h 0.221814 c 0.150312,0 0.262961,-0.0628 0.349459,-0.19481 0.153096,-0.23365 0.589954,-0.42987 0.957042,-0.42987 0.523566,0 0.814923,0.421 3.228817,4.66565 0.27477,0.48315 0.518765,0.87843 0.542213,0.87837 0.02346,-5e-5 0.161805,-0.44806 0.307462,-0.99559 0.69537,-2.6139 1.752213,-5.50646 2.737572,-7.49267 1.609098,-3.24351 4.66284,-6.9676 6.993624,-8.52885 0.927543,-0.62131 2.149717,-1.25497 2.420522,-1.25497 0.242861,0 0.291452,0.0838 0.143398,0.24744 -0.150282,0.16606 -0.119076,0.17555 0.182543,0.0555 0.120905,-0.0481 0.290102,-0.0973 0.375996,-0.10939 0.0859,-0.012 0.252803,-0.0468 0.370906,-0.0771 0.118108,-0.0304 0.214739,-0.0369 0.214739,-0.0144 0,0.0225 -0.181123,0.17381 -0.402489,0.33631 -0.221371,0.16251 -0.364604,0.30808 -0.318302,0.32352 0.04631,0.0154 0.434764,-0.11743 0.863242,-0.29525 0.73089,-0.30333 1.091254,-0.36698 1.129544,-0.19953 0.009,0.0395 -0.282254,0.22846 -0.647305,0.41985 -2.119189,1.11111 -3.973949,2.69872 -5.45088,4.66577 -1.445192,1.92477 -3.329946,5.54822 -4.567443,8.78092 -0.506399,1.32287 -0.910361,2.60666 -1.817552,5.77624 -0.75733,2.64597 -0.830308,2.7925 -1.585445,3.18341 -0.415137,0.2149 -0.572655,0.2539 -1.01193,0.2505 -0.286141,-0.002 -0.650181,-0.0579 -0.808979,-0.12384 z m 13.487357,-23.12674 c -0.02406,-0.024 -0.08705,-6e-5 -0.140023,0.0533 -0.07654,0.0771 -0.06758,0.0861 0.04371,0.0437 0.07701,-0.0293 0.120345,-0.073 0.09631,-0.097 z m 1.286353,0.024 c 0.05346,-0.0644 0.132349,-0.11713 0.175295,-0.11713 0.04356,0 0.03509,0.0518 -0.01915,0.11713 -0.05346,0.0644 -0.132345,0.11713 -0.175294,0.11713 -0.04356,0 -0.03509,-0.0518 0.01915,-0.11713 z m 0.379562,-0.0395 c 0.101391,-0.0857 0.277085,-0.15297 0.390429,-0.14958 0.120214,0.003 0.157283,0.0241 0.08896,0.0492 -0.06443,0.0237 -0.24012,0.091 -0.390433,0.14959 l -0.273302,0.10656 z"
       id="path1" /><path
       d="m 96.3732,149.65815 h -3.285801 v 8.91001 h -2.639167 v -8.91001 h -3.225648 v -2.03764 H 96.3732 Z m 6.42874,6.86484 h -3.616637 l -0.631595,2.04517 h -2.819623 l 4.015143,-10.94765 h 2.481272 l 4.04521,10.94765 h -2.83466 z m -2.985041,-2.03764 h 2.353441 l -1.18048,-3.79709 z m 12.902591,1.17296 q 0,-0.25565 -0.0752,-0.45866 -0.0677,-0.21053 -0.2782,-0.39099 -0.21053,-0.18797 -0.594,-0.36843 -0.37595,-0.18045 -0.99251,-0.38347 -0.72182,-0.2406 -1.39101,-0.54136 -0.66919,-0.30076 -1.188,-0.71431 -0.51881,-0.41354 -0.83461,-0.96243 -0.30828,-0.5564 -0.30828,-1.29327 0,-0.70678 0.3158,-1.27071 0.3158,-0.57144 0.87972,-0.96995 0.56393,-0.3985 1.33086,-0.61655 0.77446,-0.21805 1.68426,-0.21805 0.89476,0 1.64666,0.2406 0.7519,0.24061 1.29326,0.68423 0.54137,0.44362 0.84213,1.07522 0.30828,0.62407 0.30828,1.39853 H 112.727 q 0,-0.30828 -0.0977,-0.56392 -0.0902,-0.26317 -0.28573,-0.44362 -0.18797,-0.18798 -0.47369,-0.29324 -0.27821,-0.10527 -0.66167,-0.10527 -0.37595,0 -0.66168,0.0902 -0.28572,0.0827 -0.48121,0.2406 -0.18798,0.15038 -0.28572,0.3534 -0.0978,0.19549 -0.0978,0.42106 0,0.24813 0.13534,0.45114 0.14286,0.19549 0.39851,0.37595 0.26316,0.17294 0.63159,0.33084 0.37595,0.15038 0.84213,0.30076 0.8722,0.2782 1.55643,0.61655 0.68423,0.33836 1.15041,0.77446 0.4737,0.4361 0.7143,0.98499 0.24813,0.54888 0.24813,1.24063 0,0.73686 -0.29324,1.31583 -0.28572,0.57144 -0.81957,0.96243 -0.52633,0.39099 -1.27823,0.594 -0.74438,0.20301 -1.6617,0.20301 -0.56392,0 -1.12033,-0.0977 -0.5564,-0.0902 -1.06769,-0.28572 -0.50378,-0.19549 -0.9474,-0.48873 -0.4361,-0.30076 -0.75942,-0.71431 -0.31579,-0.41354 -0.50377,-0.93987 -0.18045,-0.52633 -0.18045,-1.17296 h 2.64668 q 0,0.48121 0.12782,0.81205 0.12783,0.32331 0.37595,0.52633 0.24813,0.20301 0.60152,0.29324 0.36091,0.0827 0.82709,0.0827 0.37595,0 0.63912,-0.0827 0.27068,-0.0902 0.44362,-0.23309 0.17293,-0.15038 0.24812,-0.34588 0.0827,-0.19549 0.0827,-0.41354 z m 7.71449,-1.16544 -1.08273,1.188 v 2.88729 h -2.63917 v -10.94765 h 2.63917 v 4.82719 l 0.91731,-1.39101 2.36097,-3.43618 h 3.26324 l -3.69934,4.84223 3.69934,6.10542 h -3.1279 z m 12.60183,2.04516 h 4.59411 v 2.03013 h -7.23327 v -10.94765 h 2.63916 z m 8.51902,2.03013 h -2.63164 v -10.94765 h 2.63164 z m 7.48141,-2.90985 q 0,-0.25565 -0.0752,-0.45866 -0.0677,-0.21053 -0.27821,-0.39099 -0.21053,-0.18797 -0.594,-0.36843 -0.37595,-0.18045 -0.99251,-0.38347 -0.72182,-0.2406 -1.39101,-0.54136 -0.66919,-0.30076 -1.188,-0.71431 -0.51881,-0.41354 -0.83461,-0.96243 -0.30828,-0.5564 -0.30828,-1.29327 0,-0.70678 0.3158,-1.27071 0.3158,-0.57144 0.87972,-0.96995 0.56393,-0.3985 1.33086,-0.61655 0.77446,-0.21805 1.68426,-0.21805 0.89476,0 1.64666,0.2406 0.7519,0.24061 1.29327,0.68423 0.54136,0.44362 0.84212,1.07522 0.30828,0.62407 0.30828,1.39853 h -2.63165 q 0,-0.30828 -0.0977,-0.56392 -0.0902,-0.26317 -0.28572,-0.44362 -0.18798,-0.18798 -0.4737,-0.29324 -0.2782,-0.10527 -0.66167,-0.10527 -0.37595,0 -0.66167,0.0902 -0.28573,0.0827 -0.48122,0.2406 -0.18797,0.15038 -0.28572,0.3534 -0.0977,0.19549 -0.0977,0.42106 0,0.24813 0.13534,0.45114 0.14286,0.19549 0.39851,0.37595 0.26317,0.17294 0.6316,0.33084 0.37595,0.15038 0.84212,0.30076 0.87221,0.2782 1.55644,0.61655 0.68422,0.33836 1.1504,0.77446 0.4737,0.4361 0.71431,0.98499 0.24812,0.54888 0.24812,1.24063 0,0.73686 -0.29324,1.31583 -0.28572,0.57144 -0.81957,0.96243 -0.52633,0.39099 -1.27823,0.594 -0.74438,0.20301 -1.6617,0.20301 -0.56392,0 -1.12033,-0.0977 -0.5564,-0.0902 -1.06769,-0.28572 -0.50378,-0.19549 -0.9474,-0.48873 -0.4361,-0.30076 -0.75941,-0.71431 -0.3158,-0.41354 -0.50378,-0.93987 -0.18045,-0.52633 -0.18045,-1.17296 h 2.64668 q 0,0.48121 0.12783,0.81205 0.12782,0.32331 0.37595,0.52633 0.24812,0.20301 0.60152,0.29324 0.36091,0.0827 0.82708,0.0827 0.37595,0 0.63912,-0.0827 0.27068,-0.0902 0.44362,-0.23309 0.17294,-0.15038 0.24813,-0.34588 0.0827,-0.19549 0.0827,-0.41354 z m 12.58679,-6.00016 h -3.2858 v 8.91001 h -2.63917 v -8.91001 h -3.22564 v -2.03764 h 9.15061 z m 7.90247,4.27079 h -4.15049 v 2.60909 h 4.90239 v 2.03013 h -7.54155 v -10.94765 h 7.55658 v 2.03764 h -4.91742 v 2.30833 h 4.15049 z m 5.89489,0.77446 h -1.42861 v 3.86476 h -2.63917 v -10.94765 h 4.30839 q 0.94739,0 1.71433,0.21805 0.76693,0.21053 1.3083,0.63159 0.54137,0.41355 0.82709,1.0301 0.29324,0.61656 0.29324,1.42861 0,0.6316 -0.13534,1.12785 -0.13534,0.48874 -0.39099,0.86469 -0.24812,0.36843 -0.60152,0.64663 -0.35339,0.27068 -0.78197,0.4737 l 2.28577,4.41365 v 0.11278 h -2.82714 z m -1.42861,-2.03765 h 1.66922 q 0.7519,0 1.12785,-0.39099 0.38346,-0.3985 0.38346,-1.10529 0,-0.70678 -0.38346,-1.10529 -0.38347,-0.40603 -1.12785,-0.40603 h -1.66922 z"
       id="text4"
       style="font-size:15.3989px;line-height:1.25;font-family:Roboto;-inkscape-font-specification:'Roboto, Normal';font-variant-ligatures:none;text-align:center;letter-spacing:0px;word-spacing:0px;text-anchor:middle;stroke-width:0.41247"
       aria-label="TASK LISTER" /></g></svg>
